<svg width="96" height="96" viewBox="0 0 96 96" fill="none" xmlns="http://www.w3.org/2000/svg">
<path d="M96 94C96 95.1046 95.1046 96 94 96H2C0.895429 96 0 95.1046 0 94V2C0 0.895429 0.895431 0 2 0H94C95.1046 0 96 0.895431 96 2V94ZM42.0089 69.14V76.315C42.0089 77.9035 42.4289 79.0468 43.2927 79.8098C44.1512 80.5681 45.3363 80.9367 46.9159 80.9367C48.4486 80.9367 49.6677 80.5528 50.5391 79.7955C51.4078 79.0265 51.8371 77.8879 51.8514 76.315V69.1542H49.3123V76.3293C49.3123 77.1906 49.1396 77.8289 48.7988 78.2264C48.458 78.624 47.8288 78.8255 46.9302 78.8255C46.506 78.8428 46.083 78.7698 45.6891 78.6116C45.4116 78.4773 45.1679 78.2823 44.9759 78.041C44.802 77.8045 44.6849 77.5312 44.6336 77.2422C44.577 76.9364 44.5483 76.626 44.548 76.315V69.14H42.0089ZM76.1296 76.8143L78.6544 80.8083H81.6784L77.6559 74.7744L81.3504 69.2683H78.5688L76.2294 72.9486L73.9614 69.2683H71.0229L74.7459 74.7602L70.7233 80.8083H73.562L76.1296 76.8143ZM18.4155 73.0056C18.1521 72.9946 17.8894 73.0384 17.6439 73.1341C17.3983 73.2299 17.1753 73.3755 16.989 73.5619C16.8026 73.7483 16.6569 73.9713 16.5612 74.2168C16.4654 74.4623 16.4217 74.7251 16.4327 74.9884C16.4273 75.2489 16.4738 75.5079 16.5693 75.7503C16.6648 75.9927 16.8074 76.2137 16.989 76.4006C17.3736 76.7669 17.8843 76.9712 18.4155 76.9712C18.9466 76.9712 19.4573 76.7669 19.8419 76.4006C20.1277 76.1237 20.3233 75.767 20.403 75.3772C20.4828 74.9873 20.443 74.5825 20.2888 74.2157C20.1347 73.8488 19.8734 73.537 19.5391 73.3211C19.2049 73.1052 18.8132 72.9953 18.4155 73.0056ZM71.8502 42.1658V53.7058H80.6086V51.5661H74.3893V48.7417H79.981V46.7733H74.3893V44.3055H80.4802V42.1658H71.8502ZM42.879 42.1658V53.7058H51.0383V51.5661H45.4181V42.1658H42.879ZM14.3215 42.1658V53.7058H16.8606V48.9414H21.6963V46.9729H16.8606V44.3055H22.438V42.1658H14.3215ZM44.5195 18.8719H44.548L49.3551 26.6033H51.9085V15.0633H49.5263V22.8089H49.4978L44.6764 15.0633H42.1373V26.6033H44.5195V18.8719ZM17.1316 15.0633V26.6033H19.6707V15.0633H17.1316ZM76.1866 18.8006C75.9233 18.7896 75.6606 18.8334 75.4151 18.9292C75.1695 19.0249 74.9466 19.1706 74.7602 19.357C74.5739 19.5433 74.4282 19.7663 74.3324 20.0118C74.2367 20.2573 74.1929 20.52 74.2039 20.7834C74.1985 21.0438 74.2449 21.3028 74.3404 21.5452C74.4359 21.7876 74.5786 22.0087 74.7602 22.1955C75.1448 22.5618 75.6555 22.7661 76.1866 22.7661C76.7177 22.7661 77.2285 22.5618 77.6131 22.1955C77.8988 21.9187 78.0943 21.562 78.174 21.1721C78.2537 20.7823 78.2139 20.3775 78.0597 20.0107C77.9056 19.6439 77.6444 19.3321 77.3102 19.1162C76.976 18.9003 76.5844 18.7903 76.1866 18.8006Z" fill="url(#paint0_linear_3690_9585)"/>
<defs>
<linearGradient id="paint0_linear_3690_9585" x1="-13.913" y1="12.5217" x2="105.739" y2="104.348" gradientUnits="userSpaceOnUse">
<stop stop-color="#BB0CAD"/>
<stop offset="1" stop-color="#FF3A7A"/>
</linearGradient>
</defs>
</svg>
